<svg width="230" height="233" viewBox="0 0 230 233" fill="none" xmlns="http://www.w3.org/2000/svg">
<path d="M115 230C178.513 230 230 178.513 230 115C230 51.4873 178.513 0 115 0C51.4873 0 0 51.4873 0 115C0 178.513 51.4873 230 115 230Z" fill="url(#paint0_linear_295_2311)"/>
<g filter="url(#filter0_d_295_2311)">
<mask id="mask0_295_2311" style="mask-type:alpha" maskUnits="userSpaceOnUse" x="0" y="0" width="230" height="230">
<path d="M115 230C178.513 230 230 178.513 230 115C230 51.4873 178.513 0 115 0C51.4873 0 0 51.4873 0 115C0 178.513 51.4873 230 115 230Z" fill="url(#paint1_linear_295_2311)"/>
</mask>
<g mask="url(#mask0_295_2311)">
<path d="M180.933 65.9333H49.0666C44.8324 65.9333 41.4 69.3658 41.4 73.6V234.6C41.4 238.834 44.8324 242.267 49.0666 242.267H180.933C185.167 242.267 188.6 238.834 188.6 234.6V73.6C188.6 69.3658 185.167 65.9333 180.933 65.9333Z" fill="white"/>
</g>
</g>
<path d="M101.2 81.2667H61.3333C58.7928 81.2667 56.7333 83.3262 56.7333 85.8667C56.7333 88.4072 58.7928 90.4667 61.3333 90.4667H101.2C103.741 90.4667 105.8 88.4072 105.8 85.8667C105.8 83.3262 103.741 81.2667 101.2 81.2667Z" fill="#5EDB95" fill-opacity="0.2"/>
<path d="M101.2 145.667H61.3333C58.7928 145.667 56.7333 147.726 56.7333 150.267C56.7333 152.807 58.7928 154.867 61.3333 154.867H101.2C103.741 154.867 105.8 152.807 105.8 150.267C105.8 147.726 103.741 145.667 101.2 145.667Z" fill="#5EDB95" fill-opacity="0.2"/>
<path d="M165.6 104.267H64.4C61.0126 104.267 58.2667 107.013 58.2667 110.4V125.733C58.2667 129.121 61.0126 131.867 64.4 131.867H165.6C168.987 131.867 171.733 129.121 171.733 125.733V110.4C171.733 107.013 168.987 104.267 165.6 104.267Z" stroke="#5EDB95" stroke-width="2"/>
<path d="M165.6 167.133H64.4C60.1658 167.133 56.7333 170.566 56.7333 174.8V187.067C56.7333 191.301 60.1658 194.733 64.4 194.733H165.6C169.834 194.733 173.267 191.301 173.267 187.067V174.8C173.267 170.566 169.834 167.133 165.6 167.133Z" fill="#5EDB95" fill-opacity="0.15"/>
<path d="M81.2666 49.0667C84.654 49.0667 87.4 46.3207 87.4 42.9334C87.4 39.546 84.654 36.8 81.2666 36.8C77.8793 36.8 75.1333 39.546 75.1333 42.9334C75.1333 46.3207 77.8793 49.0667 81.2666 49.0667Z" fill="white"/>
<path d="M115 49.0667C118.387 49.0667 121.133 46.3207 121.133 42.9334C121.133 39.546 118.387 36.8 115 36.8C111.613 36.8 108.867 39.546 108.867 42.9334C108.867 46.3207 111.613 49.0667 115 49.0667Z" fill="#5EDB95"/>
<path d="M148.733 49.0667C152.121 49.0667 154.867 46.3207 154.867 42.9334C154.867 39.546 152.121 36.8 148.733 36.8C145.346 36.8 142.6 39.546 142.6 42.9334C142.6 46.3207 145.346 49.0667 148.733 49.0667Z" fill="white"/>
<path d="M131.867 134.933C136.101 134.933 139.533 131.501 139.533 127.267C139.533 123.032 136.101 119.6 131.867 119.6C127.632 119.6 124.2 123.032 124.2 127.267C124.2 131.501 127.632 134.933 131.867 134.933Z" fill="#5EDB95" fill-opacity="0.15"/>
<path d="M137.857 160.034C136.631 160.034 135.485 160.034 134.443 159.968C133.158 159.881 131.923 159.442 130.872 158.698C129.821 157.954 128.996 156.935 128.487 155.753L122.018 142.968C121.544 142.416 121.307 141.698 121.359 140.972C121.411 140.245 121.748 139.569 122.297 139.09C122.747 138.729 123.307 138.534 123.884 138.54C124.309 138.552 124.726 138.656 125.106 138.845C125.486 139.034 125.821 139.304 126.088 139.635L129.025 143.644L129.07 143.696V128.463C129.07 127.707 129.37 126.982 129.905 126.448C130.439 125.913 131.164 125.613 131.92 125.613C132.675 125.613 133.4 125.913 133.935 126.448C134.469 126.982 134.769 127.707 134.769 128.463V138.429C134.736 138.063 134.78 137.693 134.898 137.344C135.015 136.995 135.204 136.675 135.453 136.403C135.701 136.131 136.003 135.914 136.34 135.765C136.677 135.617 137.041 135.54 137.41 135.54C137.778 135.54 138.142 135.617 138.479 135.765C138.816 135.914 139.118 136.131 139.367 136.403C139.615 136.675 139.804 136.995 139.922 137.344C140.04 137.693 140.083 138.063 140.05 138.429V140.507C140.017 140.14 140.061 139.771 140.178 139.422C140.296 139.073 140.485 138.752 140.733 138.48C140.982 138.209 141.284 137.991 141.621 137.843C141.958 137.694 142.322 137.618 142.691 137.618C143.059 137.618 143.423 137.694 143.76 137.843C144.097 137.991 144.399 138.209 144.648 138.48C144.896 138.752 145.085 139.073 145.203 139.422C145.32 139.771 145.364 140.14 145.331 140.507V142.108C145.298 141.741 145.341 141.371 145.459 141.023C145.577 140.674 145.766 140.353 146.014 140.081C146.263 139.809 146.565 139.592 146.902 139.444C147.239 139.295 147.603 139.218 147.971 139.218C148.34 139.218 148.704 139.295 149.041 139.444C149.378 139.592 149.68 139.809 149.928 140.081C150.177 140.353 150.366 140.674 150.483 141.023C150.601 141.371 150.645 141.741 150.612 142.108V151.825C150.56 154.813 149.209 159.852 144.457 159.852C144.112 159.867 141.189 160.036 137.864 160.036L137.857 160.034Z" fill="#5EDB95" stroke="white"/>
<defs>
<filter id="filter0_d_295_2311" x="35.4" y="56.9333" width="159.2" height="176.067" filterUnits="userSpaceOnUse" color-interpolation-filters="sRGB">
<feFlood flood-opacity="0" result="BackgroundImageFix"/>
<feColorMatrix in="SourceAlpha" type="matrix" values="0 0 0 0 0 0 0 0 0 0 0 0 0 0 0 0 0 0 127 0" result="hardAlpha"/>
<feOffset dy="-3"/>
<feGaussianBlur stdDeviation="3"/>
<feColorMatrix type="matrix" values="0 0 0 0 0.788235 0 0 0 0 0.803922 0 0 0 0 0.85098 0 0 0 0.349 0"/>
<feBlend mode="normal" in2="BackgroundImageFix" result="effect1_dropShadow_295_2311"/>
<feBlend mode="normal" in="SourceGraphic" in2="effect1_dropShadow_295_2311" result="shape"/>
</filter>
<linearGradient id="paint0_linear_295_2311" x1="115" y1="0" x2="115" y2="230" gradientUnits="userSpaceOnUse">
<stop stop-color="#5EDB95" stop-opacity="0.2"/>
<stop offset="1" stop-color="#DAFFF2"/>
</linearGradient>
<linearGradient id="paint1_linear_295_2311" x1="115" y1="0" x2="115" y2="230" gradientUnits="userSpaceOnUse">
<stop stop-color="#E3ECFA"/>
<stop offset="1" stop-color="#DAE7FF"/>
</linearGradient>
</defs>
</svg>
